<?xml version="1.0" encoding="UTF-8" standalone="no"?>
<svg width="256px" height="256px" viewBox="0 0 256 256" version="1.1" xmlns="http://www.w3.org/2000/svg" xmlns:xlink="http://www.w3.org/1999/xlink">
    <!-- Generator: Sketch 3.7.2 (28276) - http://www.bohemiancoding.com/sketch -->
    <title>Exportable</title>
    <desc>Created with Sketch.</desc>
    <defs></defs>
    <g id="Page-1" stroke="none" stroke-width="1" fill="none" fill-rule="evenodd">
        <g id="Exportable">
            <path d="M126.852938,235.69671 C181.669707,235.69671 226.107478,191.258939 226.107478,136.44217 C226.107478,99.73033 206.176083,67.6737172 176.544035,50.5030735 C161.930599,42.0351434 144.957867,37.1876294 126.852938,37.1876294 C88.09837,37.1876294 54.5314961,59.3987873 38.1876294,91.7857898" id="Oval-1" stroke="#0174FF" stroke-width="10" stroke-linecap="round" stroke-linejoin="round" transform="translate(132.147554, 136.442170) rotate(-270.000000) translate(-132.147554, -136.442170) "></path>
            <polygon id="Rectangle-2-Copy" fill="#0174FF" points="102.894613 195.868313 129.37473 142.905895 86.2246271 142.905897 160.347101 66.5596619 135.075081 119.656609 178.464831 119.656609"></polygon>
            <path d="M41.2080288,79.7835674 C41.0341836,80.0895626 40.861892,80.3964183 40.6911608,80.7041228 C39.2174116,83.3602235 40.1758969,86.7081284 42.8319976,88.1818776 C45.4880984,89.6556268 48.8360033,88.6971415 50.3097525,86.0410408 C50.4625263,85.7657005 50.616698,85.4911167 50.7722618,85.2172998 C52.2727456,82.5762097 51.3481015,79.2188008 48.7070115,77.7183171 C46.0659215,76.2178333 42.7085126,77.1424774 41.2080288,79.7835674 L41.2080288,79.7835674 Z" id="Path-Copy" fill="#0174FF" opacity="0.1"></path>
            <path d="M58.2801223,57.6410614 C58.0329841,57.8920464 57.7871064,58.1442683 57.5424993,58.3977169 C55.4330775,60.5833856 55.4948877,64.0652443 57.6805564,66.1746662 C59.866225,68.284088 63.3480838,68.2222778 65.4575056,66.0366091 C65.6765784,65.8096178 65.8967894,65.5837248 66.1181295,65.3589396 C68.2493627,63.1945337 68.2224709,59.7122301 66.058065,57.5809969 C63.8936591,55.4497637 60.4113556,55.4766555 58.2801223,57.6410614 L58.2801223,57.6410614 Z" id="Path-Copy-2" fill="#0174FF" opacity="0.2"></path>
            <path d="M79.5705468,40.7599558 C79.267409,40.9383008 78.9651567,41.1181813 78.6638014,41.2995902 C76.0613823,42.8661862 75.2216818,46.2458407 76.7882778,48.8482597 C78.3548738,51.4506788 81.7345283,52.2903793 84.3369473,50.7237833 C84.6066465,50.5614307 84.8771454,50.4004477 85.1484338,50.2408406 C87.7665078,48.7005497 88.6402237,45.3295288 87.0999327,42.7114547 C85.5596418,40.0933807 82.1886209,39.2196648 79.5705468,40.7599558 L79.5705468,40.7599558 Z" id="Path-Copy-3" fill="#0174FF" opacity="0.4"></path>
            <path d="M105.009089,30.1971497 C104.668769,30.2906498 104.328948,30.3858759 103.989637,30.4828246 C101.068951,31.3173304 99.3777677,34.361515 100.212273,37.2822012 C101.046779,40.2028874 104.090964,41.8940708 107.01165,41.059565 C107.315066,40.9728723 107.618939,40.8877197 107.923259,40.8041103 C110.852291,39.9993844 112.57438,36.9725762 111.769655,34.0435449 C110.964929,31.1145136 107.93812,29.3924239 105.009089,30.1971497 L105.009089,30.1971497 Z" id="Path-Copy-4" fill="#0174FF" opacity="0.6"></path>
            <path d="M131.462947,27.0001152 C131.111917,27.002376 130.761036,27.0063669 130.410312,27.0120873 C127.37315,27.0616242 124.951201,29.5638882 125.000738,32.6010504 C125.050275,35.6382125 127.552539,38.0601613 130.589701,38.0106244 C130.904243,38.0054941 131.218942,38.0019148 131.533791,37.999887 C134.571294,37.980324 137.017818,35.5020822 136.998255,32.464579 C136.978692,29.4270759 134.50045,26.9805521 131.462947,27.0001152 L131.462947,27.0001152 Z" id="Path-Copy-5" fill="#0174FF" opacity="0.8"></path>
            <path d="M157.834555,30.164812 C154.887685,29.4280843 151.90154,31.2197583 151.164812,34.1666279 C150.428084,37.1134974 152.219758,40.099643 155.166628,40.8363707 C155.472119,40.9127445 155.777192,40.9906618 156.08184,41.0701199 C159.021077,41.8367311 162.025261,40.0754698 162.791872,37.1362326 C163.558483,34.1969954 161.797222,31.1928117 158.857985,30.4262005 C158.517312,30.3373464 158.176166,30.2502159 157.834555,30.164812 L157.834555,30.164812 Z" id="Path-Copy-6" fill="#0174FF"></path>
            <path d="M35.4502244,111.435831 C34.4494522,110.188056 32.5505478,110.188056 31.5497756,111.435831 L16.0497756,130.761414 C14.7373033,132.39782 15.9022851,134.825583 18,134.825583 L49,134.825583 C51.0977149,134.825583 52.2626967,132.39782 50.9502244,130.761414 L35.4502244,111.435831 Z" id="Rectangle-3-Copy" fill="#0174FF"></path>
        </g>
    </g>
</svg>